<svg width="70" height="70" viewBox="0 0 70 70" fill="none" xmlns="http://www.w3.org/2000/svg">
<path fill-rule="evenodd" clip-rule="evenodd" d="M65.2391 20.9708C70.3225 26.7038 70.3324 35.0918 65.2611 39.7058C63.3069 41.4838 60.8834 42.4419 58.3517 42.6201C56.6707 34.8139 51.1065 27.1755 43.7627 23.6367C44.3837 21.8669 45.4135 20.254 46.8523 18.9448C51.9236 14.3308 60.1556 15.2379 65.2391 20.9708Z" fill="#F0ECFD"/>
<path fill-rule="evenodd" clip-rule="evenodd" d="M11.7702 42.6293C13.4444 34.8404 18.9853 27.2169 26.3034 23.6645C25.6833 21.8857 24.6508 20.2645 23.2058 18.9497C18.1345 14.3357 9.90245 15.2427 4.81902 20.9757C-0.264411 26.7087 -0.274252 35.0966 4.79704 39.7107C6.7676 41.5036 9.21538 42.4628 11.7702 42.6293Z" fill="#F0ECFD"/>
<path d="M35.4002 39.2852H34.6437C32.763 39.2852 31.2384 40.8295 31.2384 42.7345V49.5523C31.2384 51.4574 32.763 53.0017 34.6437 53.0017H35.4002C37.2809 53.0017 38.8055 51.4574 38.8055 49.5523V42.7345C38.8055 40.8295 37.2809 39.2852 35.4002 39.2852Z" fill="#F0ECFD"/>
<path d="M24.4686 46.3301C25.8764 46.3301 27.0176 45.1741 27.0176 43.7481C27.0176 42.322 25.8764 41.166 24.4686 41.166C23.0608 41.166 21.9196 42.322 21.9196 43.7481C21.9196 45.1741 23.0608 46.3301 24.4686 46.3301Z" fill="#F0ECFD"/>
<path d="M45.5766 46.3301C46.9844 46.3301 48.1256 45.1741 48.1256 43.7481C48.1256 42.322 46.9844 41.166 45.5766 41.166C44.1688 41.166 43.0276 42.322 43.0276 43.7481C43.0276 45.1741 44.1688 46.3301 45.5766 46.3301Z" fill="#F0ECFD"/>
</svg>
