<svg width="32" height="32" viewBox="0 0 32 32" fill="none" xmlns="http://www.w3.org/2000/svg">
<circle cx="16" cy="16" r="15" fill="#F0ECFD" stroke="white" stroke-width="2"/>
<path d="M23.9898 11.3063C22.6453 9.80009 20.4682 9.56138 19.1268 10.7737C18.7464 11.1175 18.4742 11.5412 18.3101 12.006C17.5975 11.6647 16.8214 11.4682 16.0092 11.4682C15.197 11.4682 14.4095 11.6675 13.6923 12.0133C13.5283 11.5457 13.2553 11.1196 12.8732 10.7737C11.5318 9.56138 9.35466 9.79974 8.01016 11.3063C6.66565 12.8125 6.66288 15.0167 8.00426 16.2287C8.52583 16.7002 9.17363 16.9521 9.84987 16.9954C9.75901 17.4152 9.71046 17.8372 9.71046 18.2517C9.71046 21.4362 12.5306 23 16.0092 23C19.4878 23 22.3076 21.4362 22.3076 18.2517C22.3076 17.8365 22.259 17.4145 22.1682 16.994C22.8378 16.9472 23.479 16.6956 23.9957 16.2287C25.3371 15.0163 25.3343 12.8125 23.9898 11.3063Z" fill="white"/>
<path d="M23.0123 14.9916C22.6291 15.3377 22.0988 15.439 21.5721 15.3175C21.1302 14.4321 20.5078 13.6148 19.757 12.9636C19.7795 12.5476 19.9408 12.1644 20.2442 11.8901C20.9419 11.2592 22.1273 11.4421 22.8919 12.2985C23.6563 13.1552 23.71 14.3606 23.0123 14.9916Z" fill="#F0ECFD"/>
<path d="M12.5094 12.7572C11.674 13.4167 10.98 14.2794 10.4921 15.2248C9.9466 15.2967 9.41948 15.14 9.06992 14.7485C8.44292 14.0463 8.62499 12.8535 9.47601 12.084C10.327 11.3148 11.5248 11.2607 12.1518 11.9629C12.3523 12.1876 12.4698 12.4623 12.5094 12.7572Z" fill="#F0ECFD"/>
<path d="M16.0981 16.4497H15.898C15.4007 16.4497 14.9974 16.8555 14.9974 17.356V19.1473C14.9974 19.6479 15.4007 20.0536 15.898 20.0536H16.0981C16.5955 20.0536 16.9988 19.6479 16.9988 19.1473V17.356C16.9988 16.8555 16.5955 16.4497 16.0981 16.4497Z" fill="#F0ECFD"/>
<path d="M13.2072 18.3368C13.5796 18.3368 13.8814 18.0331 13.8814 17.6584C13.8814 17.2837 13.5796 16.98 13.2072 16.98C12.8349 16.98 12.5331 17.2837 12.5331 17.6584C12.5331 18.0331 12.8349 18.3368 13.2072 18.3368Z" fill="#F0ECFD"/>
<path d="M18.7896 18.3368C19.162 18.3368 19.4638 18.0331 19.4638 17.6584C19.4638 17.2837 19.162 16.98 18.7896 16.98C18.4173 16.98 18.1155 17.2837 18.1155 17.6584C18.1155 18.0331 18.4173 18.3368 18.7896 18.3368Z" fill="#F0ECFD"/>
</svg>
