<svg width="40" height="40" viewBox="0 0 40 40" fill="none" xmlns="http://www.w3.org/2000/svg">
<g filter="url(#filter0_d_1022_33770)">
<circle cx="20" cy="20" r="16" fill="#F0ECFD"/>
<circle cx="20" cy="20" r="15" stroke="white" stroke-width="2"/>
</g>
<path d="M27.9898 15.3063C26.6453 13.8001 24.4682 13.5614 23.1268 14.7737C22.7464 15.1175 22.4742 15.5412 22.3101 16.006C21.5975 15.6647 20.8214 15.4682 20.0092 15.4682C19.197 15.4682 18.4095 15.6675 17.6923 16.0133C17.5283 15.5457 17.2553 15.1196 16.8732 14.7737C15.5318 13.5614 13.3547 13.7997 12.0102 15.3063C10.6657 16.8125 10.6629 19.0167 12.0043 20.2287C12.5258 20.7002 13.1736 20.9521 13.8499 20.9954C13.759 21.4152 13.7105 21.8372 13.7105 22.2517C13.7105 25.4362 16.5306 27 20.0092 27C23.4878 27 26.3076 25.4362 26.3076 22.2517C26.3076 21.8365 26.259 21.4145 26.1682 20.994C26.8378 20.9472 27.479 20.6956 27.9957 20.2287C29.3371 19.0163 29.3343 16.8125 27.9898 15.3063Z" fill="white"/>
<path d="M27.0123 18.9916C26.6291 19.3377 26.0988 19.439 25.5721 19.3175C25.1302 18.4321 24.5078 17.6148 23.757 16.9636C23.7795 16.5476 23.9408 16.1644 24.2442 15.8901C24.9419 15.2592 26.1273 15.4421 26.8919 16.2985C27.6563 17.1552 27.71 18.3606 27.0123 18.9916Z" fill="#F0ECFD"/>
<path d="M16.5094 16.7572C15.674 17.4167 14.98 18.2794 14.4921 19.2248C13.9466 19.2967 13.4195 19.14 13.0699 18.7485C12.4429 18.0463 12.625 16.8535 13.476 16.084C14.327 15.3148 15.5248 15.2607 16.1518 15.9629C16.3523 16.1876 16.4698 16.4623 16.5094 16.7572Z" fill="#F0ECFD"/>
<path d="M20.0981 20.4497H19.898C19.4007 20.4497 18.9974 20.8555 18.9974 21.356V23.1473C18.9974 23.6479 19.4007 24.0536 19.898 24.0536H20.0981C20.5955 24.0536 20.9988 23.6479 20.9988 23.1473V21.356C20.9988 20.8555 20.5955 20.4497 20.0981 20.4497Z" fill="#F0ECFD"/>
<path d="M17.2072 22.3368C17.5796 22.3368 17.8814 22.0331 17.8814 21.6584C17.8814 21.2837 17.5796 20.98 17.2072 20.98C16.8349 20.98 16.5331 21.2837 16.5331 21.6584C16.5331 22.0331 16.8349 22.3368 17.2072 22.3368Z" fill="#F0ECFD"/>
<path d="M22.7896 22.3368C23.162 22.3368 23.4638 22.0331 23.4638 21.6584C23.4638 21.2837 23.162 20.98 22.7896 20.98C22.4173 20.98 22.1155 21.2837 22.1155 21.6584C22.1155 22.0331 22.4173 22.3368 22.7896 22.3368Z" fill="#F0ECFD"/>
<defs>
<filter id="filter0_d_1022_33770" x="0" y="0" width="40" height="40" filterUnits="userSpaceOnUse" color-interpolation-filters="sRGB">
<feFlood flood-opacity="0" result="BackgroundImageFix"/>
<feColorMatrix in="SourceAlpha" type="matrix" values="0 0 0 0 0 0 0 0 0 0 0 0 0 0 0 0 0 0 127 0" result="hardAlpha"/>
<feOffset/>
<feGaussianBlur stdDeviation="2"/>
<feComposite in2="hardAlpha" operator="out"/>
<feColorMatrix type="matrix" values="0 0 0 0 0.47451 0 0 0 0 0.4 0 0 0 0 1 0 0 0 0.2 0"/>
<feBlend mode="normal" in2="BackgroundImageFix" result="effect1_dropShadow_1022_33770"/>
<feBlend mode="normal" in="SourceGraphic" in2="effect1_dropShadow_1022_33770" result="shape"/>
</filter>
</defs>
</svg>
