<svg width="24" height="24" viewBox="0 0 24 24" fill="none" xmlns="http://www.w3.org/2000/svg">
<path fill-rule="evenodd" clip-rule="evenodd" d="M9.50856 4C8.6156 4 7.83082 4.59196 7.58551 5.45056L7.14282 7H4C2.89543 7 2 7.89543 2 9V18C2 19.1046 2.89543 20 4 20H20C21.1046 20 22 19.1046 22 18V9C22 7.89543 21.1046 7 20 7H16.8571L16.4144 5.45055C16.1691 4.59195 15.3843 4 14.4914 4H9.50856Z" fill="#7966FF"/>
<path fill-rule="evenodd" clip-rule="evenodd" d="M12 15C13.1046 15 14 14.1046 14 13C14 11.8954 13.1046 11 12 11C10.8954 11 10 11.8954 10 13C10 14.1046 10.8954 15 12 15ZM12 17C14.2091 17 16 15.2091 16 13C16 10.7909 14.2091 9 12 9C9.79086 9 8 10.7909 8 13C8 15.2091 9.79086 17 12 17Z" fill="white"/>
<path d="M19 11C19 11.5523 18.5523 12 18 12C17.4477 12 17 11.5523 17 11C17 10.4477 17.4477 10 18 10C18.5523 10 19 10.4477 19 11Z" fill="white"/>
</svg>
