<svg width="24" height="24" viewBox="0 0 24 24" fill="none" xmlns="http://www.w3.org/2000/svg">
<path fill-rule="evenodd" clip-rule="evenodd" d="M9.06587 7.54944C8.82056 8.40804 8.03578 9 7.14282 9H4V18H20V9H16.8571C15.9641 9 15.1794 8.40805 14.9341 7.54945L14.4914 6L9.50856 6L9.06587 7.54944ZM7.58551 5.45056C7.83082 4.59196 8.6156 4 9.50856 4H14.4914C15.3843 4 16.1691 4.59195 16.4144 5.45055L16.8571 7H20C21.1046 7 22 7.89543 22 9V18C22 19.1046 21.1046 20 20 20H4C2.89543 20 2 19.1046 2 18V9C2 7.89543 2.89543 7 4 7H7.14282L7.58551 5.45056ZM12 15C13.1046 15 14 14.1046 14 13C14 11.8954 13.1046 11 12 11C10.8954 11 10 11.8954 10 13C10 14.1046 10.8954 15 12 15ZM12 17C14.2091 17 16 15.2091 16 13C16 10.7909 14.2091 9 12 9C9.79086 9 8 10.7909 8 13C8 15.2091 9.79086 17 12 17ZM18 12C18.5523 12 19 11.5523 19 11C19 10.4477 18.5523 10 18 10C17.4477 10 17 10.4477 17 11C17 11.5523 17.4477 12 18 12Z" fill="#7966FF"/>
</svg>
