<svg width="20" height="16" viewBox="0 0 20 16" fill="none" xmlns="http://www.w3.org/2000/svg">
<path fill-rule="evenodd" clip-rule="evenodd" d="M7.06587 3.54944C6.82056 4.40804 6.03578 5 5.14282 5H2V14H18V5H14.8571C13.9641 5 13.1794 4.40805 12.9341 3.54945L12.4914 2L7.50856 2L7.06587 3.54944ZM5.58551 1.45056C5.83082 0.591957 6.6156 0 7.50856 0H12.4914C13.3843 0 14.1691 0.591951 14.4144 1.45055L14.8571 3H18C19.1046 3 20 3.89543 20 5V14C20 15.1046 19.1046 16 18 16H2C0.895431 16 0 15.1046 0 14V5C0 3.89543 0.895431 3 2 3H5.14282L5.58551 1.45056ZM10 11C11.1046 11 12 10.1046 12 9C12 7.89543 11.1046 7 10 7C8.89543 7 8 7.89543 8 9C8 10.1046 8.89543 11 10 11ZM10 13C12.2091 13 14 11.2091 14 9C14 6.79086 12.2091 5 10 5C7.79086 5 6 6.79086 6 9C6 11.2091 7.79086 13 10 13ZM16 8C16.5523 8 17 7.55228 17 7C17 6.44772 16.5523 6 16 6C15.4477 6 15 6.44772 15 7C15 7.55228 15.4477 8 16 8Z" fill="#7966FF"/>
</svg>
