<svg width="20" height="20" viewBox="0 0 20 20" fill="none" xmlns="http://www.w3.org/2000/svg">
<mask id="path-1-inside-1_957_18078" fill="white">
<path fill-rule="evenodd" clip-rule="evenodd" d="M10 20C15.5228 20 20 15.5228 20 10C20 4.47715 15.5228 0 10 0C4.47715 0 0 4.47715 0 10C0 11.7025 0.425444 13.3056 1.17581 14.7088L0.340891 18.466C0.182113 19.1805 0.81951 19.8179 1.53401 19.6591L5.29117 18.8242C6.6944 19.5746 8.29751 20 10 20Z"/>
</mask>
<path d="M1.17581 14.7088L3.12819 15.1427C3.23192 14.6759 3.16497 14.1874 2.93949 13.7657L1.17581 14.7088ZM0.340891 18.466L2.29326 18.8999L0.340891 18.466ZM1.53401 19.6591L1.96787 21.6115L1.96787 21.6115L1.53401 19.6591ZM5.29117 18.8242L6.23428 17.0605C5.8126 16.835 5.3241 16.7681 4.8573 16.8718L5.29117 18.8242ZM18 10C18 14.4183 14.4183 18 10 18V22C16.6274 22 22 16.6274 22 10H18ZM10 2C14.4183 2 18 5.58172 18 10H22C22 3.37258 16.6274 -2 10 -2V2ZM2 10C2 5.58172 5.58172 2 10 2V-2C3.37258 -2 -2 3.37258 -2 10H2ZM2.93949 13.7657C2.34046 12.6455 2 11.3655 2 10H-2C-2 12.0395 -1.48958 13.9657 -0.587857 15.6519L2.93949 13.7657ZM2.29326 18.8999L3.12819 15.1427L-0.77656 14.275L-1.61148 18.0321L2.29326 18.8999ZM1.10015 17.7067C1.81464 17.548 2.45204 18.1854 2.29326 18.8999L-1.61148 18.0321C-2.08782 20.1756 -0.175624 22.0878 1.96787 21.6115L1.10015 17.7067ZM4.8573 16.8718L1.10015 17.7067L1.96787 21.6115L5.72503 20.7766L4.8573 16.8718ZM10 18C8.63452 18 7.35448 17.6595 6.23428 17.0605L4.34805 20.5879C6.03431 21.4896 7.96051 22 10 22V18Z" fill="#7966FF" mask="url(#path-1-inside-1_957_18078)"/>
<circle cx="10" cy="10" r="1" fill="#7966FF"/>
<circle cx="14" cy="10" r="1" fill="#7966FF"/>
<circle cx="6" cy="10" r="1" fill="#7966FF"/>
</svg>
