<svg width="21" height="18" viewBox="0 0 21 18" fill="none" xmlns="http://www.w3.org/2000/svg">
<circle cx="10" cy="7" r="1" fill="#7966FF"/>
<circle cx="14" cy="7" r="1" fill="#7966FF"/>
<circle cx="6" cy="7" r="1" fill="#7966FF"/>
<mask id="path-4-inside-1_957_18087" fill="white">
<path fill-rule="evenodd" clip-rule="evenodd" d="M2.00476 0C0.900194 0 0.00476321 0.89543 0.00476321 2V3.94638C0.00430032 3.96396 0.00406434 3.9816 0.0040581 3.99929L1.36294e-07 15.506C-0.00061053 17.2381 2.05099 18.152 3.3382 16.9931L6.66264 14H18.0048C19.1093 14 20.0048 13.1046 20.0048 12V2C20.0048 0.895431 19.1093 0 18.0048 0H2.00476Z"/>
</mask>
<path d="M0.00476321 3.94638L2.00407 3.99901L2.00476 3.9727V3.94638H0.00476321ZM0.0040581 3.99929L2.00406 4L2.00406 4L0.0040581 3.99929ZM1.36294e-07 15.506L-2 15.5053L-2 15.5053L1.36294e-07 15.506ZM3.3382 16.9931L2 15.5067L2 15.5067L3.3382 16.9931ZM6.66264 14V12H5.89496L5.32444 12.5137L6.66264 14ZM2.00476 2L2.00476 2V-2C-0.204376 -2 -1.99524 -0.209139 -1.99524 2H2.00476ZM2.00476 3.94638V2H-1.99524V3.94638H2.00476ZM-1.99454 3.89374C-1.99546 3.92863 -1.99593 3.96358 -1.99594 3.99859L2.00406 4C2.00406 3.99962 2.00406 3.99929 2.00407 3.99901L-1.99454 3.89374ZM-1.99594 3.99859L-2 15.5053L2 15.5067L2.00406 4L-1.99594 3.99859ZM-2 15.5053C-2.00122 18.9694 2.10198 20.7973 4.6764 18.4794L2 15.5067L2 15.5067L-2 15.5053ZM4.6764 18.4794L8.00084 15.4863L5.32444 12.5137L2 15.5067L4.6764 18.4794ZM18.0048 12H6.66264V16H18.0048V12ZM18.0048 12V16C20.2139 16 22.0048 14.2091 22.0048 12H18.0048ZM18.0048 2V12H22.0048V2H18.0048ZM18.0048 2H22.0048C22.0048 -0.209139 20.2139 -2 18.0048 -2V2ZM2.00476 2H18.0048V-2H2.00476V2Z" fill="#7966FF" mask="url(#path-4-inside-1_957_18087)"/>
</svg>
