<svg width="24" height="24" viewBox="0 0 24 24" fill="none" xmlns="http://www.w3.org/2000/svg">
<path fill-rule="evenodd" clip-rule="evenodd" d="M13.9101 6.53528L15.8691 4.47066L19.4505 8.05247L17.5066 10.0809L13.9101 6.53528ZM12.5333 7.9864L5.68356 15.2056C5.53491 15.3622 5.44098 15.5628 5.41581 15.7773L4.98709 19.4301L8.51453 19.1095C8.7548 19.0876 8.97908 18.9796 9.146 18.8054L16.1227 11.5251L12.5333 7.9864ZM16.9204 2.69352C16.3237 2.09678 15.3524 2.10951 14.7715 2.72168L3.88924 14.1909C3.66627 14.4259 3.52537 14.7268 3.48761 15.0485L2.9289 19.809C2.81784 20.7553 3.60563 21.564 4.55447 21.4777L9.25451 21.0504C9.61491 21.0177 9.95132 20.8557 10.2017 20.5944L21.2332 9.08287C21.7977 8.49375 21.7878 7.56142 21.2109 6.98443L16.9204 2.69352Z" fill="white"/>
</svg>
