<svg width="18" height="18" viewBox="0 0 18 18" fill="none" xmlns="http://www.w3.org/2000/svg">
<path d="M16.875 0H1.125C0.504 0 0 0.504 0 1.125V16.875C0 17.064 0.045 17.235 0.126 17.388C0.306 17.748 0.693 18 1.125 18H16.875C17.496 18 18 17.496 18 16.875V1.125C18 0.504 17.496 0 16.875 0ZM1.827 15.336L6.219 11.979L7.911 13.671L9.495 15.255L10.431 16.2H1.872L1.827 15.336V15.336ZM16.2 16.2H12.978L10.197 13.41L14.445 9.306L16.2 10.773V16.2ZM15.237 7.623C14.733 7.209 14.004 7.236 13.527 7.686L8.928 12.132L7.236 10.44C6.741 9.945 5.976 9.891 5.427 10.314L1.8 13.086V1.8H16.2V8.424L15.237 7.623V7.623Z" fill="#C4C4C4"/>
<path d="M6 4.5C4.7625 4.5 3.75 5.5125 3.75 6.75C3.75 7.9875 4.7625 9 6 9C7.2375 9 8.25 7.9875 8.25 6.75C8.25 5.5125 7.2375 4.5 6 4.5ZM6 7.5C5.5875 7.5 5.25 7.1625 5.25 6.75C5.25 6.3375 5.5875 6 6 6C6.4125 6 6.75 6.3375 6.75 6.75C6.75 7.1625 6.4125 7.5 6 7.5Z" fill="#C4C4C4"/>
</svg>
