<svg width="24" height="24" viewBox="0 0 24 24" fill="none" xmlns="http://www.w3.org/2000/svg">
<path d="M19.875 3H4.125C3.504 3 3 3.504 3 4.125V19.875C3 20.064 3.045 20.235 3.126 20.388C3.306 20.748 3.693 21 4.125 21H19.875C20.496 21 21 20.496 21 19.875V4.125C21 3.504 20.496 3 19.875 3ZM4.827 18.336L9.219 14.979L10.911 16.671L12.495 18.255L13.431 19.2H4.872L4.827 18.336V18.336ZM19.2 19.2H15.978L13.197 16.41L17.445 12.306L19.2 13.773V19.2ZM18.237 10.623C17.733 10.209 17.004 10.236 16.527 10.686L11.928 15.132L10.236 13.44C9.741 12.945 8.976 12.891 8.427 13.314L4.8 16.086V4.8H19.2V11.424L18.237 10.623V10.623Z" fill="#C4C4C4"/>
<path d="M9 7.5C7.7625 7.5 6.75 8.5125 6.75 9.75C6.75 10.9875 7.7625 12 9 12C10.2375 12 11.25 10.9875 11.25 9.75C11.25 8.5125 10.2375 7.5 9 7.5ZM9 10.5C8.5875 10.5 8.25 10.1625 8.25 9.75C8.25 9.3375 8.5875 9 9 9C9.4125 9 9.75 9.3375 9.75 9.75C9.75 10.1625 9.4125 10.5 9 10.5Z" fill="#C4C4C4"/>
</svg>
