<svg width="32" height="32" viewBox="0 0 32 32" fill="none" xmlns="http://www.w3.org/2000/svg">
<path fill-rule="evenodd" clip-rule="evenodd" d="M13.3333 22.5641C18.4313 22.5641 22.5641 18.4313 22.5641 13.3333C22.5641 8.23532 18.4313 4.10256 13.3333 4.10256C8.23532 4.10256 4.10256 8.23532 4.10256 13.3333C4.10256 18.4313 8.23532 22.5641 13.3333 22.5641ZM13.3333 26.6667C20.6971 26.6667 26.6667 20.6971 26.6667 13.3333C26.6667 5.96954 20.6971 0 13.3333 0C5.96954 0 0 5.96954 0 13.3333C0 20.6971 5.96954 26.6667 13.3333 26.6667Z" fill="#7966FF"/>
<path fill-rule="evenodd" clip-rule="evenodd" d="M29.0603 31.9998L18.6667 21.6063L21.6064 18.6665L32 29.0601L29.0603 31.9998Z" fill="#7966FF"/>
</svg>
