<svg width="24" height="24" viewBox="0 0 24 24" fill="none" xmlns="http://www.w3.org/2000/svg">
<path fill-rule="evenodd" clip-rule="evenodd" d="M15 7C15 8.65685 13.6569 10 12 10C10.3431 10 9 8.65685 9 7C9 5.34315 10.3431 4 12 4C13.6569 4 15 5.34315 15 7ZM17 7C17 9.76142 14.7614 12 12 12C9.23858 12 7 9.76142 7 7C7 4.23858 9.23858 2 12 2C14.7614 2 17 4.23858 17 7ZM6 21C6 17.6863 8.68629 15 12 15C15.3137 15 18 17.6863 18 21C18 21.5523 18.4477 22 19 22C19.5523 22 20 21.5523 20 21C20 16.5817 16.4183 13 12 13C7.58172 13 4 16.5817 4 21C4 21.5523 4.44772 22 5 22C5.55228 22 6 21.5523 6 21Z" fill="#7966FF"/>
</svg>
