<svg width="21" height="18" viewBox="0 0 21 18" fill="none" xmlns="http://www.w3.org/2000/svg">
<path fill-rule="evenodd" clip-rule="evenodd" d="M12.5069 4.03285L14.6949 2.21272L17.8306 6.19056L15.6618 7.97656L12.5069 4.03285ZM10.969 5.31212L3.31068 11.6829C3.14948 11.817 3.03451 11.9983 2.98203 12.2014L2 16L5.70091 15.9049C5.92396 15.8991 6.13868 15.819 6.31091 15.6771L14.1178 9.24808L10.969 5.31212ZM15.9477 0.571435C15.4253 -0.0912879 14.4592 -0.192785 13.8105 0.346891L1.65583 10.4579C1.40679 10.6651 1.23151 10.9473 1.1562 11.2624L0.0419723 15.9242C-0.179508 16.8509 0.547597 17.9742 1.5 18L6.17788 17.9004C6.53964 17.9102 6.89275 17.7889 7.17211 17.5588L19.4798 7.4233C20.1097 6.9046 20.2094 5.97756 19.7043 5.33677L15.9477 0.571435Z" fill="#7966FF"/>
</svg>
