<svg width="342" height="224" viewBox="0 0 342 224" fill="none" xmlns="http://www.w3.org/2000/svg">
<rect width="342" height="224" fill="#9EB7FF"/>
<path d="M19.688 93.252C20.804 93.252 22.046 92.874 23 92.046L21.956 90.3C21.398 90.75 20.714 91.11 19.976 91.11C18.536 91.11 17.492 89.868 17.492 87.978C17.492 86.07 18.518 84.846 20.084 84.846C20.624 84.846 21.11 85.062 21.614 85.494L22.856 83.802C22.118 83.154 21.182 82.686 19.922 82.686C17.186 82.686 14.792 84.63 14.792 87.978C14.792 91.308 16.916 93.252 19.688 93.252ZM28.4934 93.252C31.0134 93.252 33.3174 91.308 33.3174 87.978C33.3174 84.63 31.0134 82.686 28.4934 82.686C25.9554 82.686 23.6514 84.63 23.6514 87.978C23.6514 91.308 25.9554 93.252 28.4934 93.252ZM28.4934 91.11C27.1074 91.11 26.3514 89.868 26.3514 87.978C26.3514 86.07 27.1074 84.846 28.4934 84.846C29.8614 84.846 30.6174 86.07 30.6174 87.978C30.6174 89.868 29.8614 91.11 28.4934 91.11ZM34.9382 88.806H39.8702V86.916H34.9382V88.806ZM44.6243 93.252C45.7763 93.252 46.7843 92.694 47.6663 91.938H47.7383L47.9363 93H50.0963V87.132C50.0963 84.198 48.7823 82.686 46.2263 82.686C44.6243 82.686 43.2023 83.28 42.0143 84L42.9683 85.764C43.8863 85.206 44.8043 84.81 45.7403 84.81C46.9823 84.81 47.3963 85.548 47.4503 86.538C43.4003 86.988 41.6543 88.122 41.6543 90.264C41.6543 91.992 42.8243 93.252 44.6243 93.252ZM45.4883 91.182C44.7143 91.182 44.1743 90.84 44.1743 90.066C44.1743 89.148 44.9843 88.482 47.4503 88.176V90.21C46.8023 90.84 46.2443 91.182 45.4883 91.182ZM55.2771 93.252C55.9071 93.252 56.3211 93.144 56.6271 93.036L56.3031 91.074C56.1231 91.11 56.0511 91.11 55.9611 91.11C55.7091 91.11 55.4391 90.912 55.4391 90.282V78.654H52.7931V90.174C52.7931 92.046 53.4231 93.252 55.2771 93.252ZM60.9368 93.252C62.0888 93.252 63.0968 92.694 63.9788 91.938H64.0508L64.2488 93H66.4088V87.132C66.4088 84.198 65.0948 82.686 62.5388 82.686C60.9368 82.686 59.5148 83.28 58.3268 84L59.2808 85.764C60.1988 85.206 61.1168 84.81 62.0528 84.81C63.2948 84.81 63.7088 85.548 63.7628 86.538C59.7128 86.988 57.9668 88.122 57.9668 90.264C57.9668 91.992 59.1368 93.252 60.9368 93.252ZM61.8008 91.182C61.0268 91.182 60.4868 90.84 60.4868 90.066C60.4868 89.148 61.2968 88.482 63.7628 88.176V90.21C63.1148 90.84 62.5568 91.182 61.8008 91.182ZM80.8877 83.136V85.062H85.2797V83.136H80.8877ZM76.3517 79.212V81.624C76.3517 84.792 75.0917 88.014 72.2477 89.328L73.7417 91.254C76.8737 89.688 78.2957 85.818 78.2957 81.624V79.212H76.3517ZM76.8557 79.212V81.624C76.8557 85.782 78.1697 89.454 81.3017 90.966L82.7237 89.058C79.9697 87.834 78.7637 84.792 78.7637 81.624V79.212H76.8557ZM84.0917 77.916V94.638H86.4677V77.916H84.0917ZM100.47 77.916V94.638H102.882V77.916H100.47ZM89.8683 79.248V90.75H98.0583V79.248H95.6823V83.298H92.2443V79.248H89.8683ZM92.2443 85.152H95.6823V88.824H92.2443V85.152ZM111.791 78.888V80.094C111.791 82.488 109.721 85.134 105.959 85.782L106.985 87.762C111.305 86.916 113.879 83.712 113.879 80.094V78.888H111.791ZM112.277 78.888V80.094C112.277 83.766 114.833 86.916 119.153 87.762L120.179 85.782C116.399 85.134 114.347 82.542 114.347 80.094V78.888H112.277ZM105.617 90.624V92.568H120.701V90.624H105.617ZM133.538 86.412V88.824H135.932V86.412H133.538ZM127.238 85.008V86.754H142.25V85.008H127.238ZM133.538 77.916V79.932H135.914V77.916H133.538ZM133.394 80.04V80.364C133.394 81.516 131.864 82.65 127.796 82.812L128.462 84.594C133.07 84.342 135.5 82.758 135.5 80.364V80.04H133.394ZM133.952 80.04V80.364C133.952 82.758 136.382 84.342 140.972 84.594L141.638 82.812C137.588 82.65 136.058 81.516 136.058 80.364V80.04H133.952ZM128.642 79.23V80.976H140.828V79.23H128.642ZM128.93 87.762V89.49H138.092V90.282H128.948V93.468H131.306V91.884H140.45V87.762H128.93ZM128.948 92.748V94.494H140.882V92.748H128.948ZM147.829 79.212V81.642C147.829 84.882 146.461 88.086 143.563 89.346L144.985 91.326C148.297 89.796 149.773 85.926 149.773 81.642V79.212H147.829ZM148.297 79.212V81.642C148.297 85.746 149.773 89.454 152.995 90.93L154.399 89.004C151.555 87.78 150.241 84.72 150.241 81.642V79.212H148.297ZM155.191 77.916V94.638H157.603V77.916H155.191ZM162.066 88.464H163.794L164.172 81.822L164.244 79.32H161.598L161.67 81.822L162.066 88.464ZM162.912 93.252C163.866 93.252 164.568 92.514 164.568 91.524C164.568 90.534 163.866 89.814 162.912 89.814C161.976 89.814 161.274 90.534 161.274 91.524C161.274 92.514 161.976 93.252 162.912 93.252Z" fill="white"/>
<path d="M15.08 45.92V46.768H19.744V45.92H15.08ZM14.32 51.008V51.864H21.016V51.008H14.32ZM19.32 45.92V46.568C19.32 47.424 19.32 48.504 18.984 50.008L20.032 50.12C20.376 48.512 20.368 47.464 20.368 46.568V45.92H19.32ZM19.512 47.704L14.848 47.848L14.992 48.752L19.512 48.504V47.704ZM16.696 49.232V51.32H17.76V49.232H16.696ZM26.4474 45.304V49H27.5114V45.304H26.4474ZM27.0794 46.72V47.592H28.4874V46.72H27.0794ZM22.6154 49.296V50.112H26.4634V50.56H22.6314V52.208H23.6874V51.328H27.5114V49.296H22.6154ZM22.6314 51.8V52.632H27.7274V51.8H22.6314ZM23.7034 45.52C22.5754 45.52 21.7274 46.216 21.7274 47.2C21.7274 48.176 22.5754 48.88 23.7034 48.88C24.8394 48.88 25.6794 48.176 25.6794 47.2C25.6794 46.216 24.8394 45.52 23.7034 45.52ZM23.7034 46.376C24.2554 46.376 24.6554 46.68 24.6554 47.2C24.6554 47.72 24.2554 48.032 23.7034 48.032C23.1594 48.032 22.7594 47.72 22.7594 47.2C22.7594 46.68 23.1594 46.376 23.7034 46.376ZM33.7908 45.296V52.728H34.8468V45.296H33.7908ZM34.6068 48.096V48.976H35.9188V48.096H34.6068ZM29.3428 50.136V51.008H29.9668C31.2548 51.008 32.2708 50.96 33.3908 50.76L33.2868 49.904C32.1988 50.096 31.2228 50.136 29.9668 50.136H29.3428ZM29.3348 45.928V46.776H31.6868V47.952H29.3428V50.464H30.3988V48.8H32.7428V45.928H29.3348ZM41.5226 49.912C39.9226 49.912 38.8986 50.44 38.8986 51.32C38.8986 52.184 39.9226 52.712 41.5226 52.712C43.1226 52.712 44.1466 52.184 44.1466 51.32C44.1466 50.44 43.1226 49.912 41.5226 49.912ZM41.5226 50.712C42.5226 50.712 43.0906 50.92 43.0906 51.32C43.0906 51.712 42.5226 51.912 41.5226 51.912C40.5226 51.912 39.9546 51.712 39.9546 51.32C39.9546 50.92 40.5226 50.712 41.5226 50.712ZM38.9786 45.632V46.472H43.6666V45.632H38.9786ZM38.2266 48.608V49.456H44.8986V48.608H38.2266ZM40.6986 47.32V48.824H41.7546V47.32H40.6986ZM43.0506 45.632V46.24C43.0506 46.816 43.0506 47.352 42.8506 48.112L43.9066 48.224C44.1066 47.456 44.1066 46.824 44.1066 46.24V45.632H43.0506ZM47.354 46.472V47.304C47.354 48.56 46.754 49.928 45.514 50.48L46.114 51.32C47.506 50.688 48.202 49.016 48.202 47.304V46.472H47.354ZM47.594 46.472V47.304C47.594 48.952 48.282 50.528 49.69 51.136L50.266 50.296C49.026 49.784 48.434 48.504 48.434 47.304V46.472H47.594ZM45.81 46.016V46.888H49.962V46.016H45.81ZM50.65 45.304V52.712H51.722V45.304H50.65ZM54.5934 45.872V46.952C54.5934 48.328 54.0254 49.752 52.7774 50.336L53.4174 51.192C54.8174 50.504 55.4574 48.784 55.4574 46.952V45.872H54.5934ZM54.8094 45.872V46.952C54.8094 48.728 55.3934 50.376 56.7294 51.056L57.3694 50.208C56.1854 49.632 55.6574 48.28 55.6574 46.952V45.872H54.8094ZM57.6654 45.304V52.712H58.7374V45.304H57.6654ZM58.4974 48.152V49.04H59.8094V48.152H58.4974ZM65.0568 45.304V50H66.1208V45.304H65.0568ZM65.8248 47.192V48.064H67.1048V47.192H65.8248ZM63.7128 50.08C62.1848 50.08 61.2248 50.568 61.2248 51.4C61.2248 52.224 62.1848 52.712 63.7128 52.712C65.2408 52.712 66.2008 52.224 66.2008 51.4C66.2008 50.568 65.2408 50.08 63.7128 50.08ZM63.7128 50.88C64.6488 50.88 65.1448 51.048 65.1448 51.4C65.1448 51.752 64.6488 51.92 63.7128 51.92C62.7768 51.92 62.2808 51.752 62.2808 51.4C62.2808 51.048 62.7768 50.88 63.7128 50.88ZM60.2888 46.008V46.832H64.6488V46.008H60.2888ZM62.4728 47.08C61.3928 47.08 60.6488 47.616 60.6488 48.408C60.6488 49.208 61.3928 49.736 62.4728 49.736C63.5448 49.736 64.2888 49.208 64.2888 48.408C64.2888 47.616 63.5448 47.08 62.4728 47.08ZM62.4728 47.856C62.9448 47.856 63.2728 48.048 63.2728 48.408C63.2728 48.768 62.9448 48.96 62.4728 48.96C61.9928 48.96 61.6728 48.768 61.6728 48.408C61.6728 48.048 61.9928 47.856 62.4728 47.856ZM61.9368 45.256V46.448H63.0008V45.256H61.9368Z" fill="white"/>
<circle cx="41" cy="42" r="1" fill="white"/>
<circle cx="49" cy="42" r="1" fill="white"/>
<circle cx="56" cy="42" r="1" fill="white"/>
<circle cx="64" cy="42" r="1" fill="white"/>
<path fill-rule="evenodd" clip-rule="evenodd" d="M303.841 80.1322C310.218 87.204 310.23 97.5509 303.869 103.242C301.418 105.436 298.378 106.617 295.203 106.837C293.096 97.2072 286.116 87.7834 276.904 83.4173C277.683 81.2355 278.974 79.2471 280.778 77.6331C287.139 71.9415 297.465 73.0604 303.841 80.1322Z" fill="white"/>
<path fill-rule="evenodd" clip-rule="evenodd" d="M236.774 106.842C238.875 97.235 245.825 87.8324 255.004 83.451C254.226 81.2557 252.931 79.255 251.117 77.6326C244.756 71.941 234.431 73.0599 228.054 80.1317C221.678 87.2036 221.666 97.5504 228.027 103.242C230.499 105.454 233.569 106.637 236.774 106.842Z" fill="white"/>
<path d="M266.414 102.717H265.465C263.106 102.717 261.193 104.622 261.193 106.972V115.382C261.193 117.732 263.106 119.637 265.465 119.637H266.414C268.773 119.637 270.685 117.732 270.685 115.382V106.972C270.685 104.622 268.773 102.717 266.414 102.717Z" fill="white"/>
<path d="M252.702 111.411C254.468 111.411 255.899 109.985 255.899 108.226C255.899 106.467 254.468 105.041 252.702 105.041C250.936 105.041 249.504 106.467 249.504 108.226C249.504 109.985 250.936 111.411 252.702 111.411Z" fill="white"/>
<path d="M279.178 111.411C280.944 111.411 282.375 109.985 282.375 108.226C282.375 106.467 280.944 105.041 279.178 105.041C277.412 105.041 275.981 106.467 275.981 108.226C275.981 109.985 277.412 111.411 279.178 111.411Z" fill="white"/>
<path d="M230.083 142.514C229.146 142.041 228.001 142.414 227.527 143.347C226.645 145.078 224.888 146.154 222.941 146.154C220.109 146.154 217.804 143.858 217.804 141.036C217.804 138.214 220.109 135.918 222.941 135.918C224.738 135.918 226.373 136.828 227.318 138.354C227.869 139.245 229.041 139.522 229.935 138.973C230.828 138.424 231.106 137.257 230.556 136.366C228.913 133.714 226.066 132.13 222.941 132.13C218.011 132.13 214 136.126 214 141.037C214 145.949 218.011 149.945 222.941 149.945C226.33 149.945 229.387 148.074 230.92 145.061C231.395 144.128 231.021 142.988 230.084 142.515L230.083 142.514Z" fill="white"/>
<path d="M242.185 132.13C237.256 132.13 233.245 136.126 233.245 141.037C233.245 145.949 237.256 149.945 242.186 149.945C247.117 149.945 251.128 145.949 251.128 141.037C251.128 136.126 247.116 132.13 242.185 132.13ZM242.185 146.154C239.353 146.154 237.048 143.858 237.048 141.036C237.048 138.214 239.353 135.918 242.185 135.918C245.018 135.918 247.323 138.214 247.323 141.036C247.323 143.858 245.018 146.154 242.185 146.154Z" fill="white"/>
<path d="M279.579 133.759C278.122 132.733 276.346 132.13 274.43 132.13C269.5 132.13 265.489 136.126 265.489 141.037C265.489 145.949 269.5 149.944 274.43 149.944C276.343 149.944 278.116 149.343 279.572 148.319C279.678 149.265 280.483 150 281.462 150C282.512 150 283.363 149.153 283.363 148.106V141.393C283.369 141.276 283.371 141.157 283.371 141.037C283.371 140.918 283.369 140.798 283.363 140.681C283.25 137.824 281.78 135.309 279.579 133.759ZM274.43 146.154C271.598 146.154 269.293 143.859 269.293 141.037C269.293 138.215 271.598 135.919 274.43 135.919C277.263 135.919 279.415 138.067 279.56 140.76V141.315C279.415 144.008 277.17 146.154 274.43 146.154Z" fill="white"/>
<path d="M317.977 140.399C317.781 137.653 316.33 135.246 314.193 133.749C312.739 132.73 310.968 132.13 309.058 132.13C304.129 132.13 300.118 136.126 300.118 141.037C300.118 145.949 304.129 149.944 309.058 149.944C310.965 149.944 312.734 149.347 314.187 148.329C314.298 149.271 315.1 150 316.075 150C317.126 150 317.977 149.153 317.977 148.106V141.676C317.992 141.465 318 141.252 318 141.037C318 140.822 317.992 140.609 317.977 140.399ZM309.058 146.154C306.225 146.154 303.921 143.859 303.921 141.037C303.921 138.215 306.225 135.919 309.058 135.919C311.728 135.919 313.931 137.959 314.173 140.558V141.517C313.931 144.115 311.728 146.154 309.058 146.154Z" fill="white"/>
<path d="M260.238 139.143H255.185C254.135 139.143 253.284 139.991 253.284 141.038C253.284 142.084 254.135 142.932 255.185 142.932H260.238C261.288 142.932 262.14 142.084 262.14 141.038C262.14 139.991 261.288 139.143 260.238 139.143Z" fill="white"/>
<path d="M296.064 134.796L285.828 144.993C285.085 145.733 285.085 146.932 285.828 147.673C286.2 148.043 286.686 148.228 287.172 148.228C287.659 148.228 288.146 148.043 288.517 147.673L298.753 137.476C299.496 136.736 299.496 135.537 298.753 134.796C298.01 134.056 296.806 134.057 296.063 134.796H296.064Z" fill="white"/>
<path d="M14.728 64H15.848V61.632C15.848 60.944 15.752 60.2 15.696 59.568H15.736L16.336 60.832L18.048 64H19.256V58.08H18.128V60.44C18.128 61.112 18.224 61.904 18.288 62.52H18.248L17.648 61.24L15.928 58.08H14.728V64ZM27.7122 64.112C29.2802 64.112 30.3522 62.944 30.3522 61.016C30.3522 59.096 29.2802 57.976 27.7122 57.976C26.1362 57.976 25.0642 59.088 25.0642 61.016C25.0642 62.944 26.1362 64.112 27.7122 64.112ZM27.7122 63.088C26.8242 63.088 26.2722 62.28 26.2722 61.016C26.2722 59.752 26.8242 58.992 27.7122 58.992C28.5922 58.992 29.1522 59.752 29.1522 61.016C29.1522 62.28 28.5922 63.088 27.7122 63.088ZM37.0434 64H38.2274V59.064H39.8994V58.08H35.3714V59.064H37.0434V64ZM45.5074 64H46.6914V58.08H45.5074V64ZM55.196 64.112C55.964 64.112 56.596 63.816 57.084 63.248L56.46 62.504C56.148 62.848 55.748 63.088 55.244 63.088C54.3 63.088 53.7 62.32 53.7 61.024C53.7 59.76 54.372 58.992 55.26 58.992C55.716 58.992 56.052 59.192 56.356 59.488L56.98 58.728C56.596 58.328 55.996 57.976 55.244 57.976C53.74 57.976 52.492 59.112 52.492 61.064C52.492 63.04 53.7 64.112 55.196 64.112ZM62.678 64H66.398V63.008H63.862V61.432H65.934V60.432H63.862V59.064H66.31V58.08H62.678V64Z" fill="white" fill-opacity="0.5"/>
<rect x="14" y="127" width="39" height="19" fill="white"/>
<path d="M15.89 111.36V112.844H24.052V111.36H15.89ZM14.56 120.264V121.762H26.278V120.264H14.56ZM23.31 111.36V112.494C23.31 113.992 23.31 115.882 22.722 118.514L24.556 118.71C25.158 115.896 25.144 114.062 25.144 112.494V111.36H23.31ZM23.646 114.482L15.484 114.734L15.736 116.316L23.646 115.882V114.482ZM18.718 117.156V120.81H20.58V117.156H18.718ZM36.3429 110.282V118.01H38.2189V110.282H36.3429ZM28.1669 115.756V117.254H29.3009C32.2269 117.254 33.8089 117.184 35.5309 116.848L35.3489 115.35C33.6689 115.7 32.1429 115.756 29.3009 115.756H28.1669ZM28.1669 111.248V116.61H30.0149V112.732H34.3129V111.248H28.1669ZM33.8229 118.15C31.0929 118.15 29.3989 119.102 29.3989 120.712C29.3989 122.322 31.0929 123.26 33.8229 123.26C36.5529 123.26 38.2749 122.322 38.2749 120.712C38.2749 119.102 36.5529 118.15 33.8229 118.15ZM33.8229 119.606C35.5169 119.606 36.4129 119.956 36.4129 120.712C36.4129 121.454 35.5169 121.832 33.8229 121.832C32.1429 121.832 31.2609 121.454 31.2609 120.712C31.2609 119.956 32.1429 119.606 33.8229 119.606ZM46.6117 112.326V113.782C46.6117 115.98 45.5617 118.374 43.3917 119.34L44.4417 120.81C46.8777 119.704 48.0957 116.778 48.0957 113.782V112.326H46.6117ZM47.0317 112.326V113.782C47.0317 116.666 48.2357 119.424 50.6997 120.488L51.7077 119.018C49.5377 118.122 48.5017 115.882 48.5017 113.782V112.326H47.0317ZM43.9097 111.528V113.054H51.1757V111.528H43.9097ZM52.3797 110.282V123.246H54.2557V110.282H52.3797ZM59.4066 110.87V112.116C59.4066 113.754 58.4966 115.434 56.3126 116.134L57.2226 117.604C59.7566 116.792 60.9466 114.566 60.9466 112.116V110.87H59.4066ZM59.7846 110.87V112.116C59.7846 114.524 60.9326 116.596 63.4106 117.38L64.3206 115.924C62.2066 115.28 61.3106 113.712 61.3106 112.116V110.87H59.7846ZM58.3006 118.584V120.068H65.2726V123.246H67.1486V118.584H58.3006ZM65.2726 110.282V118.01H67.1486V110.282H65.2726ZM75.0995 110.646C72.2995 110.646 70.6475 111.43 70.6475 112.844C70.6475 114.258 72.2995 115.042 75.0995 115.042C77.8855 115.042 79.5515 114.258 79.5515 112.844C79.5515 111.43 77.8855 110.646 75.0995 110.646ZM75.0995 111.528C77.1575 111.528 78.3475 112.004 78.3475 112.844C78.3475 113.684 77.1575 114.16 75.0995 114.16C73.0275 114.16 71.8375 113.684 71.8375 112.844C71.8375 112.004 73.0275 111.528 75.0995 111.528ZM69.3735 115.882V116.82H80.8115V115.882H69.3735ZM70.7595 117.898V118.794H78.2075V119.914H70.7875V122.294H71.9355V120.754H79.3555V117.898H70.7595ZM70.7875 122.042V122.952H79.7335V122.042H70.7875ZM94.9723 115.182V116.708H97.2543V115.182H94.9723ZM93.5863 110.268V123.232H95.4623V110.268H93.5863ZM85.6903 111.514V119.564H87.5523V111.514H85.6903ZM85.6903 118.528V120.068H86.8103C88.7143 120.068 90.8003 119.956 92.9423 119.508L92.7463 117.982C90.6603 118.402 88.6583 118.528 86.8103 118.528H85.6903ZM99.6332 114.314V115.798H108.705V114.314H99.6332ZM98.1912 117.268V118.766H109.923V117.268H98.1912ZM103.063 118.164V123.246H104.925V118.164H103.063ZM99.6332 110.856V115.014H101.495V110.856H99.6332ZM112.512 113.782V115.252H121.5V113.782H112.512ZM111.056 116.596V118.08H122.802V116.596H111.056ZM112.512 110.744V114.51H114.36V110.744H112.512ZM112.386 121.482V122.966H121.57V121.482H112.386ZM112.386 119.116V121.874H114.248V119.116H112.386ZM133.645 114.328V115.826H137.061V114.328H133.645ZM130.117 111.276V113.152C130.117 115.616 129.137 118.122 126.925 119.144L128.087 120.642C130.523 119.424 131.629 116.414 131.629 113.152V111.276H130.117ZM130.509 111.276V113.152C130.509 116.386 131.531 119.242 133.967 120.418L135.073 118.934C132.931 117.982 131.993 115.616 131.993 113.152V111.276H130.509ZM136.137 110.268V123.274H137.985V110.268H136.137ZM148.876 110.268V123.274H150.752V110.268H148.876ZM140.63 111.304V120.25H147V111.304H145.152V114.454H142.478V111.304H140.63ZM142.478 115.896H145.152V118.752H142.478V115.896ZM157.681 111.024V111.962C157.681 113.824 156.071 115.882 153.145 116.386L153.943 117.926C157.303 117.268 159.305 114.776 159.305 111.962V111.024H157.681ZM158.059 111.024V111.962C158.059 114.818 160.047 117.268 163.407 117.926L164.205 116.386C161.265 115.882 159.669 113.866 159.669 111.962V111.024H158.059ZM152.879 120.152V121.664H164.611V120.152H152.879ZM61.8907 130.422V143.092H63.0667V130.422H61.8907ZM62.7447 135.56V136.526H65.0827V135.56H62.7447ZM58.6567 131.794V131.976C58.6567 135.322 56.9067 138.024 53.4067 139.802L54.0507 140.698C58.1387 138.64 59.7907 135.392 59.7907 131.794H58.6567ZM53.9947 131.794V132.746H59.2587V131.794H53.9947ZM74.4705 136.736V138.654H75.6325V136.736H74.4705ZM69.3465 136.05V136.946H80.7705V136.05H69.3465ZM74.4845 130.352V131.892H75.6325V130.352H74.4845ZM74.4285 132.004V132.2C74.4285 133.558 72.4405 134.44 69.9485 134.594L70.2845 135.49C73.0845 135.252 75.4505 134.188 75.4505 132.2V132.004H74.4285ZM74.6665 132.004V132.2C74.6665 134.188 77.0185 135.252 79.8185 135.49L80.1545 134.594C77.6765 134.44 75.6885 133.558 75.6885 132.2V132.004H74.6665ZM70.5085 131.542V132.424H79.6085V131.542H70.5085ZM70.7185 138.094V138.976H78.1665V140.054H70.7465V142.406H71.8945V140.88H79.3145V138.094H70.7185ZM70.7465 142.07V142.952H79.6925V142.07H70.7465ZM85.5574 131.528V133.796C85.5574 136.19 84.0314 138.612 82.1554 139.508L82.8694 140.46C84.9414 139.41 86.5094 136.708 86.5094 133.796V131.528H85.5574ZM85.7534 131.528V133.796C85.7534 136.61 87.3354 139.214 89.3934 140.222L90.0934 139.298C88.2174 138.43 86.7054 136.106 86.7054 133.796V131.528H85.7534ZM91.4094 130.422V143.106H92.5714V130.422H91.4094ZM96.0983 135.882V136.834H102.58V135.882H96.0983ZM98.6883 136.638V139.55H99.8643V136.638H98.6883ZM96.0983 131.626V136.218H97.2603V132.578H102.51V131.626H96.0983ZM104.246 130.422V143.106H105.408V130.422H104.246ZM95.3283 140.362C97.7223 140.376 100.746 140.32 103.518 139.9L103.42 139.032C100.746 139.354 97.6383 139.382 95.1603 139.396L95.3283 140.362ZM111.203 138.15V138.878C111.203 140.11 110.265 141.482 108.669 142.07L109.257 142.938C111.077 142.238 112.113 140.558 112.113 138.878V138.15H111.203ZM111.469 138.15V138.878C111.469 140.572 112.281 142.336 114.115 143.05L114.605 142.168C113.079 141.552 112.337 140.166 112.337 138.878V138.15H111.469ZM115.893 138.15V138.878C115.893 139.984 115.123 141.468 113.611 142.168L114.115 143.05C115.921 142.28 116.747 140.376 116.747 138.878V138.15H115.893ZM116.117 138.15V138.878C116.117 140.642 117.139 142.266 118.973 142.938L119.575 142.07C117.951 141.524 117.027 140.208 117.027 138.878V138.15H116.117ZM114.199 133.6V134.566H117.545V133.6H114.199ZM111.427 131.15C109.565 131.15 108.193 132.368 108.193 134.118C108.193 135.854 109.565 137.072 111.427 137.072C113.289 137.072 114.675 135.854 114.675 134.118C114.675 132.368 113.289 131.15 111.427 131.15ZM111.427 132.116C112.645 132.116 113.555 132.956 113.555 134.118C113.555 135.28 112.645 136.106 111.427 136.106C110.195 136.106 109.299 135.28 109.299 134.118C109.299 132.956 110.195 132.116 111.427 132.116ZM117.223 130.436V137.646H118.385V130.436H117.223ZM122.304 138.024V142.924H130.802V138.024H129.64V139.494H123.452V138.024H122.304ZM123.452 140.39H129.64V141.986H123.452V140.39ZM120.848 136.204V137.142H132.286V136.204H120.848ZM125.986 130.576V131.136C125.986 132.732 123.788 134.09 121.506 134.398L121.926 135.308C124.53 134.916 126.98 133.334 126.98 131.136V130.576H125.986ZM126.168 130.576V131.136C126.168 133.306 128.632 134.916 131.208 135.308L131.642 134.398C129.388 134.09 127.162 132.704 127.162 131.136V130.576H126.168ZM142.939 130.436V143.092H144.101V130.436H142.939ZM134.539 131.668V139.508H135.687V131.668H134.539ZM134.539 138.822V139.83H135.575C137.577 139.83 139.579 139.676 141.777 139.228L141.637 138.234C139.495 138.682 137.493 138.822 135.575 138.822H134.539ZM155.174 130.422V143.106H156.35V130.422H155.174ZM156.07 135.42V136.4H158.422V135.42H156.07ZM147.152 138.976V139.956H148.146C150.526 139.956 152.192 139.886 154.138 139.522L154.012 138.542C152.122 138.892 150.484 138.976 148.146 138.976H147.152ZM147.152 131.654V139.41H148.3V132.606H153.032V131.654H147.152ZM160.731 142.196C161.249 142.196 161.669 141.79 161.669 141.216C161.669 140.628 161.249 140.236 160.731 140.236C160.227 140.236 159.821 140.628 159.821 141.216C159.821 141.79 160.227 142.196 160.731 142.196Z" fill="white"/>
<path d="M15.89 131.36V132.844H24.052V131.36H15.89ZM14.56 140.264V141.762H26.278V140.264H14.56ZM23.31 131.36V132.494C23.31 133.992 23.31 135.882 22.722 138.514L24.556 138.71C25.158 135.896 25.144 134.062 25.144 132.494V131.36H23.31ZM23.646 134.482L15.484 134.734L15.736 136.316L23.646 135.882V134.482ZM18.718 137.156V140.81H20.58V137.156H18.718ZM35.7829 130.282V136.75H37.6449V130.282H35.7829ZM36.8889 132.76V134.286H39.3529V132.76H36.8889ZM29.0769 137.268V138.696H35.8109V139.48H29.1049V142.364H30.9529V140.824H37.6449V137.268H29.0769ZM29.1049 141.65V143.106H38.0229V141.65H29.1049ZM30.9809 130.66C29.0069 130.66 27.5229 131.878 27.5229 133.6C27.5229 135.308 29.0069 136.54 30.9809 136.54C32.9689 136.54 34.4389 135.308 34.4389 133.6C34.4389 131.878 32.9689 130.66 30.9809 130.66ZM30.9809 132.158C31.9469 132.158 32.6469 132.69 32.6469 133.6C32.6469 134.51 31.9469 135.056 30.9809 135.056C30.0289 135.056 29.3289 134.51 29.3289 133.6C29.3289 132.69 30.0289 132.158 30.9809 132.158ZM48.6338 130.268V143.274H50.4818V130.268H48.6338ZM50.0618 135.168V136.708H52.3578V135.168H50.0618ZM40.8498 138.738V140.264H41.9418C44.1958 140.264 45.9738 140.18 47.9338 139.83L47.7518 138.332C45.8478 138.668 44.1398 138.738 41.9418 138.738H40.8498ZM40.8358 131.374V132.858H44.9518V134.916H40.8498V139.312H42.6978V136.4H46.7998V131.374H40.8358Z" fill="#9EB7FF"/>
</svg>
