<svg width="110" height="80" viewBox="0 0 110 80" fill="none" xmlns="http://www.w3.org/2000/svg">
<path fill-rule="evenodd" clip-rule="evenodd" d="M95.0245 6.45492C101.769 13.899 101.782 24.7904 95.0536 30.7815C92.4612 33.09 89.2462 34.3341 85.8875 34.5655C83.6587 24.4286 76.2767 14.5087 66.5331 9.91275C67.3571 7.61611 68.7229 5.52316 70.6308 3.82425C77.3589 -2.16692 88.2803 -0.989125 95.0245 6.45492Z" fill="white"/>
<path fill-rule="evenodd" clip-rule="evenodd" d="M24.0883 34.5708C26.3103 24.4579 33.6613 14.5605 43.3695 9.94851C42.547 7.63764 41.1768 5.53161 39.2589 3.82376C32.5309 -2.16741 21.6094 -0.989613 14.8653 6.45443C8.12109 13.8985 8.10804 24.7899 14.8361 30.781C17.4507 33.1092 20.6985 34.3548 24.0883 34.5708Z" fill="white"/>
<path d="M55.4376 30.2285H54.4338C51.9387 30.2285 49.9161 32.2338 49.9161 34.7074V43.56C49.9161 46.0336 51.9387 48.0389 54.4338 48.0389H55.4376C57.9326 48.0389 59.9553 46.0336 59.9553 43.56V34.7074C59.9553 32.2338 57.9326 30.2285 55.4376 30.2285Z" fill="white"/>
<path d="M40.9345 39.3797C42.8022 39.3797 44.3163 37.8787 44.3163 36.027C44.3163 34.1754 42.8022 32.6743 40.9345 32.6743C39.0668 32.6743 37.5527 34.1754 37.5527 36.027C37.5527 37.8787 39.0668 39.3797 40.9345 39.3797Z" fill="white"/>
<path d="M68.9384 39.3797C70.8061 39.3797 72.3202 37.8787 72.3202 36.027C72.3202 34.1754 70.8061 32.6743 68.9384 32.6743C67.0707 32.6743 65.5566 34.1754 65.5566 36.027C65.5566 37.8787 67.0707 39.3797 68.9384 39.3797Z" fill="white"/>
<path d="M17.0109 72.1201C16.0202 71.6225 14.8092 72.0144 14.3073 72.9966C13.375 74.8194 11.5163 75.9521 9.45742 75.9521C6.46118 75.9521 4.02315 73.5351 4.02315 70.5646C4.02315 67.5941 6.46118 65.177 9.45742 65.177C11.3574 65.177 13.0873 66.1353 14.0861 67.7417C14.6694 68.679 15.9085 68.9701 16.854 68.3928C17.7994 67.8145 18.0931 66.586 17.5108 65.6487C15.7738 62.8567 12.7624 61.1895 9.45742 61.1895C4.24241 61.1895 0 65.3954 0 70.5656C0 75.7358 4.24241 79.9417 9.45742 79.9417C13.041 79.9417 16.2747 77.9723 17.896 74.8014C18.3989 73.8192 18.0026 72.6187 17.0119 72.1211L17.0109 72.1201Z" fill="white"/>
<path d="M29.8116 61.1895C24.5976 61.1895 20.3552 65.3954 20.3552 70.5656C20.3552 75.7358 24.5976 79.9417 29.8126 79.9417C35.0277 79.9417 39.2701 75.7358 39.2701 70.5656C39.2701 65.3954 35.0266 61.1895 29.8116 61.1895ZM29.8116 75.9521C26.8154 75.9521 24.3774 73.5351 24.3774 70.5646C24.3774 67.5941 26.8154 65.177 29.8116 65.177C32.8079 65.177 35.2459 67.5941 35.2459 70.5646C35.2459 73.5351 32.8079 75.9521 29.8116 75.9521Z" fill="white"/>
<path d="M69.3622 62.9045C67.8214 61.8246 65.9425 61.1895 63.9169 61.1895C58.7019 61.1895 54.4595 65.3954 54.4595 70.5656C54.4595 75.7358 58.7019 79.9407 63.9169 79.9407C65.9395 79.9407 67.8153 79.3085 69.3552 78.2306C69.4668 79.2267 70.3187 80.0005 71.3537 80.0005C72.4651 80.0005 73.3653 79.1081 73.3653 78.0062V70.9405C73.3713 70.8169 73.3733 70.6912 73.3733 70.5656C73.3733 70.4399 73.3713 70.3143 73.3653 70.1906C73.2456 67.1833 71.6906 64.5359 69.3622 62.9045V62.9045ZM63.9169 75.9521C60.9207 75.9521 58.4826 73.5361 58.4826 70.5656C58.4826 67.5951 60.9207 65.178 63.9169 65.178C66.9131 65.178 69.1892 67.4385 69.3421 70.2734V70.8577C69.1892 73.6926 66.8146 75.9521 63.9169 75.9521V75.9521Z" fill="white"/>
<path d="M109.976 69.8935C109.769 67.0028 108.234 64.47 105.974 62.8936C104.436 61.8206 102.562 61.1895 100.543 61.1895C95.3286 61.1895 91.0862 65.3954 91.0862 70.5656C91.0862 75.7358 95.3286 79.9407 100.543 79.9407C102.559 79.9407 104.43 79.3125 105.967 78.2416C106.084 79.2327 106.933 80.0005 107.964 80.0005C109.076 80.0005 109.976 79.1081 109.976 78.0062V71.2376C109.992 71.0163 110 70.7919 110 70.5656C110 70.3392 109.992 70.1149 109.976 69.8935ZM100.543 75.9521C97.5464 75.9521 95.1093 73.5361 95.1093 70.5656C95.1093 67.5951 97.5464 65.178 100.543 65.178C103.367 65.178 105.696 67.3259 105.953 70.061V71.0701C105.696 73.8053 103.367 75.9521 100.543 75.9521Z" fill="white"/>
<path d="M48.9054 68.5718H43.5616C42.4502 68.5718 41.55 69.4642 41.55 70.5661C41.55 71.6679 42.4502 72.5603 43.5616 72.5603H48.9054C50.0168 72.5603 50.917 71.6679 50.917 70.5661C50.917 69.4642 50.0168 68.5718 48.9054 68.5718Z" fill="white"/>
<path d="M86.7983 63.9966L75.972 74.7298C75.1864 75.5086 75.1864 76.7709 75.972 77.5507C76.3652 77.9406 76.8792 78.135 77.3941 78.135C77.9091 78.135 78.4241 77.9406 78.8163 77.5507L89.6426 66.8175C90.4281 66.0387 90.4281 64.7763 89.6426 63.9966C88.8571 63.2168 87.5838 63.2178 86.7972 63.9966H86.7983Z" fill="white"/>
</svg>
