<svg width="220" height="38" viewBox="0 0 220 38" fill="none" xmlns="http://www.w3.org/2000/svg">
<path fill-rule="evenodd" clip-rule="evenodd" d="M64.2391 4.97084C69.3225 10.7038 69.3324 19.0918 64.2611 23.7058C62.3069 25.4838 59.8834 26.4419 57.3517 26.6201C55.6707 18.8139 50.1065 11.1755 42.7627 7.63673C43.3837 5.86686 44.4135 4.25396 45.8523 2.94484C50.9236 -1.66921 59.1556 -0.762144 64.2391 4.97084Z" fill="#7966FF"/>
<path fill-rule="evenodd" clip-rule="evenodd" d="M10.7702 26.6293C12.4444 18.8404 17.9853 11.2169 25.3034 7.66455C24.6833 5.88568 23.6508 4.26449 22.2058 2.94973C17.1345 -1.66433 8.90245 -0.757261 3.81902 4.97572C-1.26441 10.7087 -1.27425 19.0966 3.79704 23.7107C5.7676 25.5036 8.21538 26.4628 10.7702 26.6293Z" fill="#7966FF"/>
<path d="M34.4002 23.2852H33.6437C31.763 23.2852 30.2384 24.8295 30.2384 26.7345V33.5523C30.2384 35.4574 31.763 37.0017 33.6437 37.0017H34.4002C36.2809 37.0017 37.8055 35.4574 37.8055 33.5523V26.7345C37.8055 24.8295 36.2809 23.2852 34.4002 23.2852Z" fill="#7966FF"/>
<path d="M23.4686 30.3301C24.8764 30.3301 26.0176 29.1741 26.0176 27.7481C26.0176 26.322 24.8764 25.166 23.4686 25.166C22.0608 25.166 20.9196 26.322 20.9196 27.7481C20.9196 29.1741 22.0608 30.3301 23.4686 30.3301Z" fill="#7966FF"/>
<path d="M44.5766 30.3301C45.9844 30.3301 47.1256 29.1741 47.1256 27.7481C47.1256 26.322 45.9844 25.166 44.5766 25.166C43.1688 25.166 42.0276 26.322 42.0276 27.7481C42.0276 29.1741 43.1688 30.3301 44.5766 30.3301Z" fill="#7966FF"/>
<path d="M98.1649 20.4621C96.8669 19.8009 95.2802 20.3217 94.6227 21.627C93.4011 24.0494 90.9658 25.5548 88.2683 25.5548C84.3426 25.5548 81.1482 22.3426 81.1482 18.3949C81.1482 14.4472 84.3426 11.2349 88.2683 11.2349C90.7576 11.2349 93.0242 12.5084 94.3327 14.6433C95.0971 15.8889 96.7206 16.2759 97.9593 15.5086C99.198 14.74 99.5828 13.1074 98.8198 11.8617C96.544 8.15124 92.5985 5.93555 88.2683 5.93555C81.4355 5.93555 75.8771 11.5251 75.8771 18.3962C75.8771 25.2672 81.4355 30.8568 88.2683 30.8568C92.9636 30.8568 97.2003 28.2396 99.3245 24.0255C99.9834 22.7202 99.4642 21.1247 98.1662 20.4635L98.1649 20.4621Z" fill="#FFD703"/>
<path d="M114.936 5.93555C108.105 5.93555 102.547 11.5251 102.547 18.3962C102.547 25.2672 108.105 30.8568 114.938 30.8568C121.77 30.8568 127.329 25.2672 127.329 18.3962C127.329 11.5251 121.769 5.93555 114.936 5.93555ZM114.936 25.5548C111.011 25.5548 107.816 22.3426 107.816 18.3949C107.816 14.4472 111.011 11.2349 114.936 11.2349C118.862 11.2349 122.056 14.4472 122.056 18.3949C122.056 22.3426 118.862 25.5548 114.936 25.5548Z" fill="#FFD703"/>
<path d="M166.756 8.21485C164.737 6.77968 162.275 5.93555 159.621 5.93555C152.789 5.93555 147.23 11.5251 147.23 18.3962C147.23 25.2672 152.789 30.8555 159.621 30.8555C162.271 30.8555 164.729 30.0153 166.747 28.5828C166.893 29.9067 168.009 30.935 169.365 30.935C170.821 30.935 172.001 29.749 172.001 28.2847V18.8945C172.009 18.7301 172.011 18.5632 172.011 18.3962C172.011 18.2292 172.009 18.0622 172.001 17.8979C171.844 13.9012 169.807 10.3828 166.756 8.21485ZM159.621 25.5548C155.696 25.5548 152.501 22.3439 152.501 18.3962C152.501 14.4485 155.696 11.2363 159.621 11.2363C163.547 11.2363 166.529 14.2404 166.73 18.0079V18.7845C166.529 22.5519 163.418 25.5548 159.621 25.5548Z" fill="#5E45F2"/>
<path d="M219.968 17.503C219.697 13.6613 217.686 10.2954 214.725 8.20027C212.71 6.77438 210.255 5.93555 207.609 5.93555C200.777 5.93555 195.219 11.5251 195.219 18.3962C195.219 25.2672 200.777 30.8555 207.609 30.8555C210.251 30.8555 212.702 30.0206 214.716 28.5974C214.87 29.9146 215.982 30.935 217.333 30.935C218.789 30.935 219.968 29.749 219.968 28.2847V19.2894C219.989 18.9952 220 18.697 220 18.3962C220 18.0954 219.989 17.7972 219.968 17.503ZM207.609 25.5548C203.683 25.5548 200.49 22.3439 200.49 18.3962C200.49 14.4485 203.683 11.2363 207.609 11.2363C211.309 11.2363 214.361 14.0907 214.697 17.7256V19.0667C214.361 22.7017 211.309 25.5548 207.609 25.5548Z" fill="#5E45F2"/>
<path d="M139.953 15.7451H132.952C131.496 15.7451 130.316 16.9312 130.316 18.3955C130.316 19.8598 131.496 21.0458 132.952 21.0458H139.953C141.409 21.0458 142.589 19.8598 142.589 18.3955C142.589 16.9312 141.409 15.7451 139.953 15.7451Z" fill="#FFD703"/>
<path d="M189.601 9.66686L175.416 23.9311C174.387 24.966 174.387 26.6437 175.416 27.68C175.932 28.1981 176.605 28.4565 177.28 28.4565C177.954 28.4565 178.629 28.1981 179.143 27.68L193.328 13.4158C194.357 12.3808 194.357 10.7031 193.328 9.66686C192.299 8.63057 190.63 8.63189 189.6 9.66686H189.601Z" fill="#5E45F2"/>
</svg>
