<svg width="24" height="24" viewBox="0 0 24 24" fill="none" xmlns="http://www.w3.org/2000/svg">
<path fill-rule="evenodd" clip-rule="evenodd" d="M14.5069 6.03285L16.6949 4.21272L19.8306 8.19056L17.6618 9.97656L14.5069 6.03285ZM12.969 7.31212L5.31068 13.6829C5.14948 13.817 5.03451 13.9983 4.98203 14.2014L4 18L7.70091 17.9049C7.92396 17.8991 8.13868 17.819 8.31091 17.6771L16.1178 11.2481L12.969 7.31212ZM17.9477 2.57143C17.4253 1.90871 16.4592 1.80722 15.8105 2.34689L3.65583 12.4579C3.40679 12.6651 3.23151 12.9473 3.1562 13.2624L2.04197 17.9242C1.82049 18.8509 2.5476 19.9742 3.5 20L8.17788 19.9004C8.53964 19.9102 8.89275 19.7889 9.17211 19.5588L21.4798 9.4233C22.1097 8.9046 22.2094 7.97756 21.7043 7.33677L17.9477 2.57143Z" fill="#fff"/>
</svg>
